<svg
  viewBox="0 0 1428 174"
  version="1.1"
  xmlns="http://www.w3.org/2000/svg"
  xmlns:xlink="http://www.w3.org/1999/xlink"
>
  <g stroke="none" stroke-width="1" fill="none" fill-rule="evenodd">
    <g transform="translate(-2.000000, 44.000000)" fill="#FFFFFF" fill-rule="nonzero">
      <path
        d="M0,0 C90.7283404,0.927527913 147.912752,27.187927 291.910178,59.9119003 C387.908462,81.7278826 543.605069,89.334785 759,82.7326078 C469.336065,156.254352 216.336065,153.6679 0,74.9732496"
        opacity="0.100000001"
      />
      <path
        d="M100,104.708498 C277.413333,72.2345949 426.147877,52.5246657 546.203633,45.5787101 C666.259389,38.6327546 810.524845,41.7979068 979,55.0741668 C931.069965,56.122511 810.303266,74.8455141 616.699903,111.243176 C423.096539,147.640838 250.863238,145.462612 100,104.708498 Z"
        opacity="0.100000001"
      />
      <path
        d="M1046,51.6521276 C1130.83045,29.328812 1279.08318,17.607883 1439,40.1656806 L1439,120 C1271.17211,77.9435312 1140.17211,55.1609071 1046,51.6521276 Z"
        id="Path-4"
        opacity="0.200000003"
      />
    </g>
    <g transform="translate(-4.000000, 76.000000)" fill="#FFFFFF" fill-rule="nonzero">
      <!-- <path
        d="M0.457,34.035 C57.086,53.198 98.208,65.809 123.822,71.865 C181.454,85.495 234.295,90.29 272.033,93.459 C311.355,96.759 396.635,95.801 461.025,91.663 C486.76,90.01 518.727,86.372 556.926,80.752 C595.747,74.596 622.372,70.008 636.799,66.991 C663.913,61.324 712.501,49.503 727.605,46.128 C780.47,34.317 818.839,22.532 856.324,15.904 C922.689,4.169 955.676,2.522 1011.185,0.432 C1060.705,1.477 1097.39,3.129 1121.236,5.387 C1161.703,9.219 1208.621,17.821 1235.4,22.304 C1285.855,30.748 1354.351,47.432 1440.886,72.354 L1441.191,104.352 L1.121,104.031 L0.457,34.035 Z"
      /> -->
      <path fill="white">
        <animate repeatCount="indefinite" fill="freeze" attributeName="d" dur="10s" values="M0 25.9086C277 84.5821 433 65.736 720 25.9086C934.818 -3.9019 1214.06 -5.23669 1442 8.06597C2079 45.2421 2208 63.5007 2560 25.9088V171.91L0 171.91V25.9086Z;
        M0 86.3149C316 86.315 444 159.155 884 51.1554C1324 -56.8446 1320.29 34.1214 1538 70.4063C1814 116.407 2156 188.408 2560 86.315V232.317L0 232.316V86.3149Z;
        M0 53.6584C158 11.0001 213 0 363 0C513 0 855.555 115.001 1154 115.001C1440 115.001 1626 -38.0004 2560 53.6585V199.66L0 199.66V53.6584Z;
        
        M0 25.9086C277 84.5821 433 65.736 720 25.9086C934.818 -3.9019 1214.06 -5.23669 1442 8.06597C2079 45.2421 2208 63.5007 2560 25.9088V171.91L0 171.91V25.9086Z
        "
        />
      </path>
    </g>
  </g>
</svg>